<svg width="140" height="140" viewBox="0 0 140 140" fill="none" xmlns="http://www.w3.org/2000/svg">
<g clip-path="url(#clip0_192_1561)">
<path d="M62.2658 101.315C62.2951 102.886 60.4679 104.543 58.5234 104.633C58.7834 105.849 59.102 107.035 58.582 108.277C57.8276 110.234 55.7989 111.3 53.7959 111.034C50.5771 110.589 49.7055 106.055 52.8108 104.693C53.9131 104.218 55.5646 105.314 54.3488 106.41C53.6824 107.031 52.5801 107.211 53.0708 108.513C53.3601 109.224 54.1438 109.373 54.7809 109.254C55.8832 109.048 56.491 108.098 56.5496 107.031C56.6961 106.111 56.3482 105.165 56.1139 104.214C54.6638 103.503 53.5615 101.872 53.968 100.215C54.2866 98.7633 56.0553 99.3544 55.3595 100.275C55.0409 100.896 55.506 101.786 56.026 102.261C56.1725 101.58 56.4032 100.929 56.7803 100.305C58.2341 98.0262 62.2072 97.9065 62.2658 101.315ZM60.0907 100.249C58.8127 100.013 58.2927 101.73 58.2634 102.65C58.2634 102.71 58.2634 102.77 58.2634 102.83C58.6992 102.77 59.1349 102.624 59.4828 102.385C60.38 101.76 61.0501 100.574 60.0907 100.249Z" fill="#767676"/>
<path d="M66.0675 101.049C65.7782 101.404 65.2252 102.115 64.6173 103.006C64.8187 103.006 64.9945 103.036 65.0824 103.036C65.5475 103.066 65.0531 104.311 64.5038 104.311C64.3024 104.311 64.0095 104.281 63.7202 104.281C62.358 106.268 60.9958 108.401 61.1972 108.58C61.5743 108.996 63.4016 106.893 64.156 106.002C64.6796 105.411 65.3461 106.092 64.7931 106.713C63.4895 108.105 61.545 110.833 59.9777 110.537C58.8169 110.357 58.3519 109.025 59.3113 107.694C59.7177 107.102 60.5893 105.677 61.4864 104.225C61.34 104.225 61.1971 104.225 61.0507 104.225C60.527 104.225 61.08 102.95 61.6036 102.92C61.7501 102.92 62.0101 102.92 62.2994 102.92C63.2258 101.438 64.0388 100.162 64.3024 99.9265C64.7675 99.4813 65.3168 99.1259 65.7818 99.2456C66.2395 99.3878 66.9353 100.043 66.0675 101.049Z" fill="#767676"/>
<path d="M72.2441 106.74C70.9661 108.131 69.0546 110.829 67.4873 110.563C66.9087 110.444 66.6744 109.912 66.733 109.258C66.2386 109.819 65.5721 110.324 64.8471 110.324C62.4412 110.324 63.137 107.211 64.5578 105.524C65.9786 103.833 67.7766 102.65 68.9081 103.122C69.2853 103.271 69.516 103.567 69.6332 103.892C69.6918 103.803 69.7211 103.743 69.7797 103.687C70.2447 103.242 70.8233 102.886 71.259 103.036C71.7534 103.155 72.4199 103.836 71.5776 104.843C70.5926 105.969 68.736 108.221 69.0253 108.517C69.2853 108.782 70.9112 106.886 71.6655 105.999C72.1855 105.404 72.7934 106.145 72.2441 106.74ZM67.3994 106.74C68.3002 105.614 68.8495 104.667 68.6481 104.487C68.476 104.308 67.5752 105.138 66.5901 106.354C65.6344 107.54 65.14 108.696 65.2572 108.812C65.5135 109.078 66.4986 107.866 67.3994 106.74Z" fill="#767676"/>
<path d="M77.3502 101.049C77.0609 101.404 76.508 102.115 75.9001 103.006C76.1015 103.006 76.2773 103.036 76.3651 103.036C76.8302 103.066 76.3358 104.311 75.7866 104.311C75.5852 104.311 75.2922 104.281 75.0029 104.281C73.6407 106.268 72.2785 108.401 72.4799 108.58C72.8571 108.996 74.6844 106.893 75.4387 106.002C75.9624 105.411 76.6288 106.092 76.0759 106.713C74.7722 108.105 72.8278 110.833 71.2605 110.537C70.0996 110.357 69.6346 109.025 70.594 107.694C71.0005 107.102 71.872 105.677 72.7692 104.225C72.6227 104.225 72.4799 104.225 72.3334 104.225C71.8097 104.225 72.3627 102.95 72.8863 102.92C73.0328 102.92 73.2928 102.92 73.5821 102.92C74.5086 101.438 75.3215 100.162 75.5852 99.9265C76.0502 99.4813 76.5995 99.1259 77.0646 99.2456C77.5223 99.3878 78.2181 100.043 77.3502 101.049Z" fill="#767676"/>
<path d="M79.494 106.74C78.1867 108.131 76.3045 110.829 74.7079 110.563C73.5764 110.358 73.4592 109.022 74.3893 107.69C75.3744 106.328 76.4766 104.222 77.0002 103.691C77.4653 103.245 78.0439 102.89 78.4797 103.04C78.974 103.159 79.6698 103.84 78.7982 104.847C77.8132 105.973 75.9566 108.225 76.2459 108.521C76.5059 108.786 78.1611 106.889 78.9154 106.003C79.4061 105.404 80.0433 106.145 79.494 106.74ZM79.5526 102.235C78.1611 102.235 79.5233 99.0925 81.1199 99.4479C82.5956 99.7734 80.6548 102.591 79.5526 102.235Z" fill="#767676"/>
<path d="M86.4567 106.739C86.021 107.185 85.5596 107.776 85.0652 108.341C83.963 109.556 83.6151 110.002 82.5422 109.792C82.3664 109.762 82.2529 109.702 82.1357 109.613C81.4399 110.118 80.7442 110.383 80.1619 110.383C78.1882 110.383 77.551 108.337 78.7411 106.294C79.9312 104.221 81.872 102.886 83.2672 102.886C84.7466 102.886 85.8782 104.132 84.7173 106.47C84.3402 107.211 83.9044 107.862 83.4393 108.427C83.6407 108.337 83.9886 108.071 84.3402 107.686C84.8895 107.121 85.4717 106.44 85.8489 105.995C86.3689 105.404 87.006 106.144 86.4567 106.739ZM83.1793 104.633C82.3371 104.633 79.4955 108.722 80.3084 108.722C80.9163 108.722 84.0216 104.633 83.1793 104.633Z" fill="#767676"/>
<path d="M93.2408 106.74C91.9371 108.132 90.0513 110.829 88.4547 110.563C86.8581 110.268 87.2646 108.696 88.224 107.365C89.1504 106.033 90.3405 105.023 90.1391 104.757C89.9634 104.491 88.224 106.298 87.6747 106.889C87.0375 107.866 86.3967 108.816 85.9939 109.377C85.386 110.238 85.1224 110.563 84.4266 110.563C83.3537 110.563 83.643 109.112 84.9502 107.365C85.906 106.033 86.7482 104.637 86.8947 104.342C87.3305 103.451 87.4733 103.01 88.0848 103.01C88.5499 103.01 89.1284 103.365 89.2163 103.986C89.9121 103.425 90.6372 103.01 91.3622 103.01C92.058 103.01 93.043 103.84 92.1166 105.202C91.1901 106.564 89.7107 108.225 90 108.521C90.26 108.786 91.8859 106.889 92.6402 106.003C93.1529 105.404 93.7937 106.145 93.2408 106.74Z" fill="#767676"/>
<path d="M18.8141 64.085L19.8101 65.9781C21.1797 68.5821 20.2203 71.8558 17.7009 73.2401L15.4708 74.4672L20.0042 83.0723C20.2239 83.4876 20.0738 83.9852 19.671 84.2097L17.646 85.3246C17.2395 85.5491 16.7524 85.3957 16.5327 84.9841L6.40394 65.7649C6.18423 65.3496 6.33435 64.852 6.73716 64.6275L11.7137 61.8889C14.2367 60.5008 17.4446 61.4848 18.8141 64.085ZM15.2621 65.8472C14.9178 65.1962 14.1488 64.9343 13.5117 65.286L11.2816 66.5131L13.5886 70.8905L15.8187 69.6633C16.4559 69.3117 16.6682 68.511 16.3387 67.89L15.2621 65.8472Z" fill="#767676"/>
<path d="M25.4707 59.8126L27.1625 64.5079L29.876 63.4865C30.3081 63.3256 30.7731 63.5426 30.9306 63.9841L31.6337 65.937C31.7911 66.3785 31.5788 66.8537 31.1467 67.0145L28.4332 68.0359L30.8281 74.6841L35.1161 73.0716C35.5483 72.9108 36.0133 73.1278 36.1708 73.5692L36.8958 75.5858C37.0533 76.0273 36.8409 76.5024 36.4088 76.6633L29.1583 79.3907C28.7262 79.5515 28.2611 79.3345 28.1036 78.8931L20.7213 58.4096C20.5638 57.9681 20.7762 57.493 21.2083 57.3321L28.4552 54.6047C28.8873 54.4438 29.3523 54.6608 29.5098 55.1023L30.2349 57.1189C30.3923 57.5603 30.1799 58.0355 29.7478 58.1963L25.4707 59.8126Z" fill="#767676"/>
<path d="M43.554 51.3348L44.0777 53.486C44.1875 53.9425 43.8909 54.3989 43.4771 54.5037L40.7344 55.1995L45.1579 73.4196C45.2678 73.876 45.0041 74.3249 44.5574 74.4372L42.3236 75.0021C41.9098 75.1069 41.4374 74.845 41.3276 74.3886L36.904 56.1685L34.1906 56.8569C33.7438 56.9692 33.3044 56.6998 33.1945 56.2433L32.6709 54.0921C32.561 53.6357 32.8247 53.1867 33.2714 53.0745L42.5543 50.7212C42.9754 50.6165 43.4442 50.8784 43.554 51.3348Z" fill="#767676"/>
<path d="M56.9917 61.0399L60.6829 66.2103C60.8916 66.5209 61.0088 66.9099 61.06 67.2766L61.5141 70.6026C61.5764 71.0665 61.3017 71.4818 60.8476 71.5454L58.57 71.8709C58.1159 71.9345 57.6728 71.6239 57.6105 71.16L57.2919 68.833C57.2407 68.4663 57.1272 68.1109 56.9111 67.733L52.5278 61.6423L53.901 71.7212C53.9633 72.1851 53.6557 72.6041 53.2016 72.6677L50.9239 72.9932C50.4991 73.0531 50.0597 72.7426 49.9974 72.2787L47.0459 50.6579C46.9837 50.194 47.3242 49.7712 47.7454 49.7114L53.3774 48.9108C56.241 48.503 58.8812 50.5681 59.2803 53.4938L59.566 55.5889C59.8736 57.8486 58.7713 59.9737 56.9917 61.0399ZM53.8974 52.7343L51.3597 53.0972L52.0371 58.0544L54.5748 57.6915C55.2596 57.5942 55.7613 56.9133 55.6587 56.1463L55.3438 53.853C55.2449 53.1197 54.5821 52.637 53.8974 52.7343Z" fill="#767676"/>
<path d="M74.5116 51.7652L75.006 66.6369C75.0865 69.0202 73.2446 70.9993 70.9449 71.0779L67.3307 71.2013C64.9981 71.2836 63.0609 69.4354 62.984 67.0522L62.4897 52.1805C62.4091 49.7973 64.2181 47.7845 66.5507 47.7059L70.165 47.5825C72.461 47.5039 74.4311 49.3858 74.5116 51.7652ZM70.5788 52.2404C70.5641 51.769 70.1576 51.4472 69.6962 51.4659L67.2648 51.552C66.8034 51.5669 66.4225 51.9186 66.4372 52.3863L66.9059 66.4836C66.9205 66.955 67.3307 67.3441 67.7884 67.3253L70.2199 67.2393C70.6813 67.2243 71.0621 66.8053 71.0438 66.3376L70.5788 52.2404Z" fill="#767676"/>
<path d="M82.502 48.6404L81.4328 67.4478L86.0247 67.721C86.4825 67.7472 86.823 68.14 86.7974 68.6076L86.6766 70.7514C86.6509 71.2191 86.2664 71.567 85.8087 71.5408L78.0968 71.0844C77.639 71.0582 77.2985 70.6654 77.3241 70.1977L78.5618 48.4085C78.5875 47.9408 78.972 47.5929 79.4297 47.6191L81.7257 47.7537C82.1871 47.7837 82.5276 48.1728 82.502 48.6404Z" fill="#767676"/>
<path d="M94.6489 52.854L93.9495 57.8074L96.8131 58.2302C97.2671 58.2975 97.5747 58.7165 97.5088 59.1805L97.2195 61.2419C97.1536 61.7058 96.7435 62.0201 96.2894 61.9527L93.4258 61.53L92.4371 68.5448L96.9595 69.2107C97.4136 69.2781 97.7212 69.6971 97.6553 70.161L97.355 72.2898C97.2891 72.7537 96.879 73.068 96.4249 73.0006L88.7789 71.8745C88.3248 71.8072 88.0172 71.3881 88.0831 70.9242L91.1298 49.3185C91.1957 48.8546 91.6058 48.5404 92.0599 48.6077L99.7059 49.7338C100.16 49.8012 100.468 50.2202 100.402 50.6841L100.101 52.8129C100.036 53.2768 99.6254 53.591 99.1713 53.5237L94.6489 52.854Z" fill="#767676"/>
<path d="M113.254 52.8539L115.484 53.4338C115.93 53.5498 116.183 54.0324 116.07 54.4889L111.631 72.2563C111.064 74.5348 108.742 75.9378 106.516 75.3579L103.011 74.445C100.781 73.8651 99.4043 71.4931 99.9755 69.2184L104.414 51.4509C104.527 50.9945 104.974 50.6952 105.421 50.8112L107.651 51.3911C108.098 51.5071 108.35 51.9897 108.237 52.4461L103.894 69.8245C103.78 70.2809 104.073 70.7374 104.52 70.8533L106.878 71.4669C107.325 71.5829 107.797 71.3247 107.911 70.8683L112.254 53.4899C112.36 53.0372 112.807 52.7379 113.254 52.8539Z" fill="#767676"/>
<path d="M129.122 79.9523L127.932 82.8293C127.748 83.2596 127.243 83.4392 126.851 83.2633L124.742 82.3243C124.321 82.1372 124.134 81.6508 124.317 81.2206L125.339 78.8186C125.419 78.6353 125.482 78.4782 125.533 78.2836L128.576 68.0287L123.347 76.6898C123.131 77.034 122.71 77.1762 122.347 77.0153L120.055 75.9977C119.692 75.8368 119.48 75.414 119.575 75.0175L122.215 65.204L116.942 74.4675C116.832 74.6396 116.766 74.793 116.69 74.9763L115.668 77.3782C115.485 77.8085 115.009 77.9993 114.588 77.8122L112.478 76.8731C112.057 76.6861 111.87 76.1997 112.054 75.7695L113.302 72.9186C113.343 72.825 113.434 72.6118 113.57 72.3761L123.102 56.7299C123.318 56.3857 123.739 56.2435 124.131 56.4193L126.39 57.4257C126.782 57.6016 126.965 58.0094 126.87 58.406L123.9 70.0864L130.275 59.9175C130.491 59.5733 130.912 59.4311 131.275 59.592L133.567 60.6096C133.959 60.7855 134.142 61.1933 134.047 61.5898L129.338 79.3798C129.254 79.6417 129.162 79.8587 129.122 79.9523Z" fill="#767676"/>
<path d="M72.7884 78.2129C72.7738 78.2129 72.7554 78.2129 72.7408 78.2129C72.7335 78.2129 72.7262 78.2129 72.7152 78.2129C72.7079 78.2129 72.7005 78.2129 72.6895 78.2129C72.6749 78.2129 72.6566 78.2129 72.6419 78.2129C49.4146 78.2129 28.9043 84.8648 16.5271 95.0336L22.3788 98.0154L23.0855 104.94C25.1655 103.044 27.6995 101.218 30.673 99.5119C41.7209 93.163 56.6248 89.6649 72.6383 89.6649C72.6529 89.6649 72.6712 89.6649 72.6859 89.6649C72.6932 89.6649 72.7005 89.6649 72.7115 89.6649C72.7188 89.6649 72.7262 89.6649 72.7371 89.6649C72.7518 89.6649 72.7701 89.6649 72.7848 89.6649C88.8019 89.6649 103.706 93.163 114.75 99.5119C117.723 101.222 120.258 103.044 122.337 104.94L123.044 98.0154L128.896 95.0336C116.526 84.8648 96.0158 78.2129 72.7884 78.2129Z" fill="#767676"/>
<path d="M47.7599 107.518C48.9866 107.518 48.9866 105.576 47.7599 105.576C46.5332 105.576 46.5332 107.518 47.7599 107.518Z" fill="#767676"/>
<path d="M96.2836 107.518C97.5103 107.518 97.5103 105.576 96.2836 105.576C95.0568 105.576 95.0568 107.518 96.2836 107.518Z" fill="#767676"/>
<path d="M29.5209 94.5546C29.8614 95.1345 29.6783 95.8827 29.1107 96.2306C28.5505 96.5747 27.8107 96.3914 27.4702 95.8116C27.1333 95.2392 27.32 94.4798 27.8803 94.1356C28.4479 93.7877 29.184 93.9822 29.5209 94.5546Z" fill="white"/>
<path d="M35.6407 92.1112L36.0728 93.0503C36.3951 93.7499 36.1058 94.588 35.421 94.921L33.9416 95.6318C33.8317 95.6842 33.7072 95.6393 33.6559 95.5271L31.272 90.3565C31.2208 90.2442 31.2647 90.117 31.3746 90.0646L32.7295 89.4136C33.4143 89.0844 34.2309 89.3912 34.5531 90.0908L34.7911 90.6071C34.912 90.869 34.9523 91.1422 34.9047 91.4078C35.2233 91.5313 35.4869 91.7745 35.6407 92.1112ZM33.081 91.7969L33.6962 91.5013C33.861 91.4228 33.9342 91.2132 33.8573 91.0449L33.6047 90.4949C33.5241 90.3191 33.3191 90.2442 33.1543 90.3228L32.5391 90.6184L33.081 91.7969ZM34.6849 92.5115C34.6044 92.3357 34.3993 92.2608 34.2345 92.3394L33.4948 92.6948L34.2565 94.3485L34.9962 93.9931C35.161 93.9145 35.2342 93.705 35.15 93.5217L34.6849 92.5115Z" fill="white"/>
<path d="M36.5369 88.8005L37.0202 90.0164L37.7233 89.7246C37.8368 89.6797 37.9577 89.7321 38.0053 89.8443L38.2067 90.3494C38.2506 90.4653 38.1993 90.5888 38.0895 90.6374L37.3864 90.9292L38.0675 92.6502L39.1771 92.19C39.2869 92.1451 39.4114 92.1975 39.4554 92.3097L39.6641 92.8298C39.7081 92.9457 39.6568 93.0692 39.5469 93.1178L37.6721 93.8923C37.5585 93.9372 37.4377 93.8848 37.3901 93.7726L35.2882 88.475C35.2442 88.3628 35.2955 88.2356 35.4053 88.1869L37.2802 87.4125C37.3901 87.3676 37.5146 87.42 37.5585 87.5322L37.7636 88.0523C37.8075 88.1645 37.7563 88.2917 37.6464 88.3403L36.5369 88.8005Z" fill="white"/>
<path d="M40.9864 87.6927L40.9278 87.5168C40.8655 87.3335 40.6714 87.2437 40.492 87.3073L40.1185 87.442C39.9391 87.5056 39.8402 87.7002 39.9024 87.8835L40.0745 88.3885C40.1368 88.5719 40.3309 88.6617 40.514 88.6055L40.8875 88.4709C41.6125 88.2127 42.3889 88.5981 42.6415 89.3388L42.9894 90.3602C43.2384 91.0898 42.8576 91.8979 42.1435 92.1523L41.77 92.287C41.0559 92.5414 40.265 92.1523 40.0159 91.419L39.7852 90.7381C39.745 90.6221 39.8036 90.4986 39.9171 90.4575L40.4847 90.2554C40.5982 90.2143 40.719 90.2741 40.7593 90.3901L41.0047 91.1122C41.0669 91.2955 41.2647 91.3928 41.4441 91.3292L41.8176 91.1945C41.9971 91.1309 42.0922 90.9289 42.03 90.7456L41.6601 89.6643C41.5979 89.481 41.4038 89.3912 41.2244 89.4548L40.8509 89.5895C40.1331 89.8364 39.3495 89.4623 39.1005 88.7327L38.9393 88.2576C38.6903 87.5281 39.0712 86.7199 39.7852 86.4655L40.1588 86.3309C40.8838 86.0727 41.6638 86.4655 41.9128 87.1988L41.9604 87.341C42.0007 87.457 41.9421 87.5804 41.8286 87.6216L41.261 87.8236C41.1475 87.8685 41.0266 87.8087 40.9864 87.6927Z" fill="white"/>
<path d="M45.2491 84.9395L45.4102 85.4969C45.4432 85.6166 45.3736 85.7363 45.2637 85.77L44.5533 85.9833L45.9192 90.697C45.9522 90.8167 45.8899 90.9364 45.7727 90.9701L45.1941 91.1459C45.088 91.1796 44.9598 91.116 44.9268 90.9963L43.5609 86.2825L42.8615 86.4958C42.7443 86.5294 42.6272 86.4659 42.5942 86.3461L42.4331 85.7887C42.4001 85.669 42.4624 85.5493 42.5796 85.5156L44.9818 84.7899C45.0916 84.7599 45.2161 84.8198 45.2491 84.9395Z" fill="white"/>
<path d="M52.0698 88.3139L52.4067 88.2391C52.5056 88.2166 52.6301 88.2877 52.6557 88.4075L52.7766 88.9649C52.8022 89.0847 52.7216 89.2006 52.6045 89.2306L50.942 89.6085C50.2865 89.7581 49.6383 89.3353 49.4955 88.6731L48.7155 85.0776C48.569 84.4078 48.9828 83.7456 49.6383 83.5997L50.3451 83.4388C51.0005 83.2891 51.6487 83.7119 51.7915 84.3816L52.4324 87.3449C52.5129 87.719 52.3591 88.0969 52.0698 88.3139ZM50.7808 84.6061C50.7552 84.4864 50.6307 84.4041 50.5135 84.434L49.891 84.5762C49.7738 84.6024 49.6932 84.7296 49.7225 84.8493L50.5025 88.4486C50.5282 88.5609 50.649 88.6394 50.7662 88.6132L51.6048 88.4224L50.7808 84.6061Z" fill="white"/>
<path d="M55.0473 82.515L55.6406 82.4102C55.7578 82.3877 55.8713 82.4775 55.8896 82.5973L56.6989 87.3264C56.8014 87.9326 56.3949 88.5237 55.8017 88.6285L54.8679 88.7931C54.2747 88.8979 53.6961 88.4826 53.5936 87.8764L52.7843 83.1473C52.7623 83.0275 52.8392 82.9041 52.9564 82.8854L53.5496 82.7806C53.6668 82.7581 53.7803 82.8479 53.7986 82.9677L54.5896 87.5921C54.6116 87.7118 54.7287 87.7904 54.8459 87.7679L55.4721 87.6557C55.5893 87.6332 55.6772 87.521 55.6552 87.4013L54.8642 82.7768C54.8532 82.6571 54.9301 82.5337 55.0473 82.515Z" fill="white"/>
<path d="M60.7542 86.8925L60.8531 87.6594C60.8677 87.7829 60.7872 87.8914 60.6663 87.9064L60.0585 87.9887C59.9486 88.0036 59.8424 87.9213 59.8241 87.7979L59.7216 87.0047L58.579 87.1581L58.6816 87.9513C58.6962 88.0747 58.6157 88.1832 58.4948 88.1982L57.8979 88.2805C57.7771 88.2954 57.6709 88.2131 57.6563 88.0897L57.5574 87.3227C57.5537 87.289 57.55 87.2629 57.55 87.2067L57.6636 82.2944C57.6672 82.1785 57.7515 82.0887 57.8613 82.0737L59.143 81.9016C59.2528 81.8866 59.3517 81.9727 59.381 82.0662L60.7286 86.784C60.7432 86.8326 60.7469 86.8588 60.7542 86.8925ZM59.4762 86.0357L58.6266 83.0165L58.5717 86.1554L59.4762 86.0357Z" fill="white"/>
<path d="M62.1432 81.7813L62.6046 86.6936L63.8058 86.5739C63.9266 86.5627 64.0291 86.6487 64.0401 86.7722L64.0914 87.3334C64.1024 87.4568 64.0181 87.5616 63.8973 87.5728L61.8833 87.7711C61.7624 87.7823 61.6599 87.6963 61.6489 87.5728L61.1142 81.8823C61.1033 81.7589 61.1875 81.6541 61.3083 81.6429L61.9089 81.583C62.0297 81.5718 62.1323 81.6578 62.1432 81.7813Z" fill="white"/>
<path d="M65.7101 87.4384L65.1095 87.4833C64.9887 87.4908 64.8898 87.401 64.8788 87.2776L64.487 81.5834C64.4797 81.4599 64.5676 81.3477 64.6847 81.3402L65.2853 81.2953C65.4061 81.2878 65.5087 81.3851 65.516 81.5086L65.9078 87.2027C65.9188 87.3262 65.8309 87.431 65.7101 87.4384Z" fill="white"/>
<path d="M69.3835 81.3056L69.4091 81.8856C69.4128 82.009 69.3139 82.11 69.2041 82.1138L68.4643 82.1475L68.6731 87.0599C68.6767 87.1834 68.5889 87.2844 68.468 87.2881L67.8675 87.3143C67.7539 87.3181 67.6477 87.2283 67.6441 87.1048L67.4354 82.1923L66.703 82.226C66.5821 82.2298 66.4833 82.14 66.4796 82.0165L66.454 81.4366C66.4503 81.3131 66.5382 81.2121 66.659 81.2084L69.1638 81.0961C69.27 81.0886 69.3762 81.1822 69.3835 81.3056Z" fill="white"/>
<path d="M72.6622 81.0412L73.2664 81.0337C73.3873 81.0337 73.4825 81.1272 73.4825 81.2507L73.4898 82.1223C73.4898 82.2196 73.4752 82.3169 73.4312 82.4029L72.3583 84.7074L72.3803 86.9744C72.3803 87.0979 72.2887 87.1951 72.1679 87.1951L71.5637 87.2026C71.4428 87.2026 71.3476 87.1091 71.3476 86.9856L71.3256 84.7186L70.2014 82.4328C70.1648 82.3468 70.1392 82.2495 70.1392 82.1523L70.1318 81.2806C70.1318 81.1571 70.2234 81.0599 70.3442 81.0599L70.9485 81.0524C71.0693 81.0524 71.1645 81.1459 71.1645 81.2694L71.1718 81.939C71.1718 82.0101 71.1901 82.0812 71.2268 82.141L71.831 83.383L72.4132 82.1298C72.4389 82.07 72.4535 81.9989 72.4535 81.9278L72.4462 81.2582C72.4498 81.1422 72.5414 81.0449 72.6622 81.0412Z" fill="white"/>
<path d="M78.9574 84.2998C78.9281 84.9771 78.3679 85.4973 77.7051 85.4636C77.0496 85.4336 76.5332 84.8611 76.5662 84.1838C76.5955 83.514 77.1631 82.9864 77.8186 83.0201C78.4814 83.0538 78.9867 83.6338 78.9574 84.2998Z" fill="white"/>
<path d="M85.3645 85.5119L85.2583 86.5445C85.1814 87.3152 84.5076 87.8801 83.7532 87.7978L82.1274 87.6257C82.0065 87.6145 81.9223 87.506 81.937 87.3825L82.5192 81.6996C82.5302 81.5762 82.6364 81.4901 82.7572 81.5051L84.2476 81.6622C85.002 81.7408 85.5439 82.4367 85.467 83.2073L85.4084 83.776C85.3791 84.0641 85.2766 84.3185 85.0972 84.5205C85.3022 84.8011 85.4048 85.1453 85.3645 85.5119ZM84.3428 85.351C84.3611 85.1602 84.2256 84.9844 84.0462 84.9657L83.2333 84.8797L83.0465 86.6979L83.8595 86.7839C84.0389 86.8026 84.211 86.6605 84.2293 86.4622L84.3428 85.351ZM83.3321 83.892L84.0096 83.9631C84.189 83.9818 84.3611 83.8396 84.3794 83.6563L84.4417 83.054C84.46 82.8632 84.3245 82.6873 84.1451 82.6686L83.4676 82.5975L83.3321 83.892Z" fill="white"/>
<path d="M87.7431 83.1135L87.56 84.4118L88.3107 84.5203C88.4316 84.539 88.5121 84.6475 88.4938 84.7673L88.4169 85.3061C88.3986 85.4295 88.2924 85.5118 88.1752 85.4931L87.4245 85.3846L87.1682 87.2217L88.351 87.3938C88.4718 87.4125 88.5524 87.521 88.5341 87.6407L88.4572 88.1982C88.4389 88.3217 88.3327 88.404 88.2118 88.3853L86.2088 88.0935C86.088 88.0747 86.0111 87.9663 86.0257 87.8465L86.8167 82.1894C86.835 82.0659 86.9412 81.9873 87.062 82.0023L89.0651 82.2941C89.1859 82.3129 89.2628 82.4214 89.2482 82.5411L89.1712 83.0986C89.1529 83.222 89.0468 83.3006 88.9259 83.2856L87.7431 83.1135Z" fill="white"/>
<path d="M92.115 84.4081L92.1479 84.2248C92.1809 84.034 92.0564 83.8582 91.8696 83.8245L91.4815 83.7534C91.2947 83.7197 91.1153 83.8357 91.0823 84.0265L90.9871 84.554C90.9541 84.7448 91.0787 84.9206 91.2654 84.9618L91.6536 85.0329C92.4079 85.175 92.8986 85.9008 92.7595 86.6678L92.569 87.7303C92.4335 88.4935 91.7122 89.0023 90.9688 88.8638L90.5806 88.7928C89.8373 88.6543 89.3356 87.9173 89.4711 87.1579L89.5993 86.447C89.6212 86.3273 89.7311 86.2488 89.8483 86.2712L90.4415 86.3834C90.5587 86.4059 90.6356 86.5181 90.6136 86.6378L90.4781 87.3898C90.4451 87.5806 90.5696 87.7639 90.7564 87.7976L91.1446 87.8687C91.3313 87.9024 91.5108 87.7752 91.5437 87.5844L91.7451 86.4583C91.7781 86.2675 91.6536 86.0916 91.4668 86.058L91.0786 85.9869C90.3353 85.841 89.8336 85.1189 89.9691 84.3595L90.057 83.8656C90.1925 83.1062 90.9139 82.5936 91.6572 82.7321L92.0454 82.8031C92.7997 82.9416 93.2904 83.6786 93.1513 84.438L93.1256 84.5839C93.1037 84.7037 92.9938 84.7822 92.8766 84.7598L92.2834 84.6475C92.1699 84.6438 92.093 84.5316 92.115 84.4081Z" fill="white"/>
<path d="M97.1196 84.1275L96.9951 84.6925C96.9695 84.8122 96.8487 84.8833 96.7388 84.8571L96.0174 84.6925L94.9628 89.4887C94.9372 89.6085 94.8237 89.6833 94.7065 89.6534L94.1169 89.5187C94.007 89.4925 93.9265 89.3765 93.9558 89.2568L95.0104 84.4605L94.2963 84.2959C94.1792 84.2697 94.1059 84.1537 94.1352 84.034L94.2597 83.4691C94.2853 83.3493 94.3989 83.2745 94.516 83.3045L96.9585 83.8656C97.0647 83.8918 97.1453 84.0078 97.1196 84.1275Z" fill="white"/>
<path d="M102.97 87.0272L102.813 87.566C102.597 88.3068 101.824 88.7333 101.107 88.5125L100.473 88.318L99.7553 90.7687C99.7223 90.8884 99.6015 90.952 99.488 90.9183L98.9094 90.7425C98.7922 90.7088 98.73 90.5853 98.7666 90.4693L100.367 84.9918C100.4 84.8758 100.521 84.8085 100.634 84.8422L102.051 85.2762C102.769 85.4969 103.187 86.2864 102.97 87.0272ZM101.993 86.683C102.048 86.4959 101.952 86.3051 101.769 86.249L101.136 86.0544L100.773 87.3003L101.407 87.4949C101.59 87.551 101.773 87.4425 101.824 87.2629L101.993 86.683Z" fill="white"/>
<path d="M105.419 89.8705L105.668 91.5279C105.679 91.6251 105.66 91.7299 105.631 91.8234L105.345 92.654C105.305 92.7699 105.192 92.8335 105.078 92.7924L104.51 92.5866C104.397 92.5455 104.331 92.4183 104.371 92.3023L104.573 91.7224C104.606 91.6326 104.62 91.5353 104.613 91.4194L104.313 89.4627L103.445 91.9768C103.404 92.0928 103.284 92.1526 103.17 92.1115L102.603 91.9057C102.496 91.8683 102.43 91.7411 102.471 91.6251L104.335 86.2341C104.375 86.1181 104.503 86.062 104.609 86.0994L106.015 86.6045C106.729 86.8626 107.099 87.667 106.847 88.3965L106.667 88.9203C106.466 89.4814 105.96 89.8406 105.419 89.8705ZM105.679 87.5585L105.045 87.3303L104.617 88.5648L105.25 88.7931C105.422 88.8529 105.62 88.7594 105.686 88.5686L105.884 87.9962C105.949 87.8129 105.851 87.6183 105.679 87.5585Z" fill="white"/>
<path d="M106.805 93.4956L106.245 93.2674C106.132 93.2225 106.08 93.0953 106.124 92.9831L108.197 87.6815C108.241 87.5656 108.369 87.5057 108.479 87.5506L109.039 87.7788C109.153 87.8237 109.2 87.9584 109.156 88.0744L107.084 93.3759C107.04 93.4882 106.919 93.5443 106.805 93.4956Z" fill="white"/>
<path d="M111.096 92.2875L111.646 92.5419C111.755 92.5943 111.799 92.729 111.748 92.8412L111.148 94.2031C110.899 94.7643 110.247 95.0224 109.69 94.768L108.826 94.3715C108.277 94.117 108.028 93.4436 108.273 92.8824L109.844 89.3244C110.097 88.7557 110.745 88.5051 111.301 88.7595L112.166 89.1561C112.722 89.4142 112.968 90.0764 112.719 90.6451L112.33 91.5281C112.283 91.6403 112.151 91.6964 112.041 91.6478L111.492 91.3934C111.382 91.341 111.338 91.2063 111.389 91.0941L111.741 90.3009C111.788 90.1887 111.733 90.0577 111.635 90.0091L111.045 89.7397C110.935 89.6873 110.803 89.7322 110.752 89.8445L109.269 93.2116C109.221 93.3239 109.276 93.4548 109.386 93.5072L109.976 93.7766C110.078 93.8252 110.21 93.7803 110.261 93.6681L110.818 92.411C110.858 92.295 110.986 92.2389 111.096 92.2875Z" fill="white"/>
<path d="M114.729 91.5466L114.136 92.7102L114.806 93.0694C114.912 93.1255 114.952 93.2564 114.897 93.3649L114.648 93.8475C114.593 93.956 114.465 93.9972 114.359 93.9411L113.689 93.5819L112.847 95.2281L113.909 95.7931C114.015 95.8492 114.055 95.9801 114 96.0886L113.744 96.5862C113.689 96.6947 113.561 96.7359 113.455 96.6798L111.66 95.722C111.554 95.6659 111.514 95.5349 111.569 95.4264L114.161 90.3569C114.216 90.2484 114.344 90.2072 114.451 90.2633L116.245 91.2211C116.351 91.2772 116.391 91.4082 116.336 91.5167L116.08 92.0143C116.025 92.1228 115.897 92.1639 115.791 92.1078L114.729 91.5466Z" fill="white"/>
<path d="M117.922 95.7857C117.582 96.3657 116.849 96.5565 116.282 96.2085C115.722 95.8643 115.528 95.1122 115.868 94.5322C116.205 93.9597 116.948 93.7689 117.509 94.1094C118.08 94.4574 118.259 95.2132 117.922 95.7857Z" fill="white"/>
<path d="M75.3555 34.8174C75.3555 38.2443 72.6347 41.0241 69.2804 41.0241C65.9261 41.0241 63.2053 38.2443 63.2053 34.8174C63.2053 31.3904 69.2804 22.0859 69.2804 22.0859C69.2804 22.0859 75.3555 31.3904 75.3555 34.8174Z" fill="#767676"/>
<path d="M56.4788 43.3064C54.1351 43.3064 52.2273 41.3572 52.2273 38.9628C52.2273 36.7741 55.6182 31.5176 56.0064 30.9265L56.4824 30.2007L56.9585 30.9265C57.3466 31.5176 60.7375 36.7741 60.7375 38.9628C60.7302 41.3572 58.8224 43.3064 56.4788 43.3064ZM56.4788 32.3183C55.3106 34.2001 53.3661 37.6122 53.3661 38.9628C53.3661 40.7137 54.7613 42.1429 56.4788 42.1429C58.1925 42.1429 59.5914 40.7174 59.5914 38.9628C59.5914 37.6122 57.6469 34.1964 56.4788 32.3183Z" fill="#767676"/>
<path d="M83.4441 42.5544C81.1005 42.5544 79.1926 40.6052 79.1926 38.2108C79.1926 36.0222 82.5835 30.7657 82.9717 30.1745L83.4477 29.4487L83.9238 30.1745C84.3119 30.7657 87.7028 36.0222 87.7028 38.2108C87.6955 40.6052 85.7877 42.5544 83.4441 42.5544ZM83.4441 31.5663C82.2759 33.4482 80.3315 36.8602 80.3315 38.2108C80.3315 39.9655 81.7266 41.3909 83.4441 41.3909C85.1578 41.3909 86.5567 39.9655 86.5567 38.2108C86.5567 36.8602 84.6122 33.4482 83.4441 31.5663Z" fill="#767676"/>
</g>
<defs>
<clipPath id="clip0_192_1561">
<rect width="140" height="140" fill="white"/>
</clipPath>
</defs>
</svg>
